<?xml version="1.0" encoding="iso-8859-1"?>
<!-- Generator: Adobe Illustrator 20.1.0, SVG Export Plug-In . SVG Version: 6.00 Build 0)  -->
<svg xmlns="http://www.w3.org/2000/svg" xmlns:xlink="http://www.w3.org/1999/xlink" version="1.1" id="&#1057;&#1083;&#1086;&#1081;_1" x="0px" y="0px" viewBox="0 0 64 64" style="enable-background:new 0 0 64 64;" xml:space="preserve">
<linearGradient id="SVGID_1__43593" gradientUnits="userSpaceOnUse" x1="26" y1="46.8334" x2="26" y2="56.3638" spreadMethod="reflect">
	<stop offset="0" style="stop-color:#6DC7FF"/>
	<stop offset="1" style="stop-color:#E6ABFF"/>
</linearGradient>
<polygon style="fill:url(#SVGID_1__43593);" points="29,56.001 26,55.001 23,56.001 23,47 29,47 "/>
<linearGradient id="SVGID_2__43593" gradientUnits="userSpaceOnUse" x1="32" y1="5.25" x2="32" y2="58.8962" spreadMethod="reflect">
	<stop offset="0" style="stop-color:#1A6DFF"/>
	<stop offset="1" style="stop-color:#C822FF"/>
</linearGradient>
<path style="fill:url(#SVGID_2__43593);" d="M46,9H31V8.001C31,6.897,30.103,6,29,6h-6c-1.103,0-2,0.897-2,2.001V9h-3  c-2.757,0-5,2.243-5,5.001v36.001C13,52.759,15.243,55,18,55h3v0.994c0,0.764,0.425,1.451,1.108,1.793  C22.393,57.93,22.701,58,23.006,58c0.425,0,0.845-0.137,1.2-0.403L26,56.252l1.793,1.345c0.609,0.457,1.415,0.53,2.099,0.19  C30.575,57.445,31,56.758,31,55.994V55h15c2.757,0,5-2.241,5-4.998V14.001C51,11.243,48.757,9,46,9z M23,8h6v1h-6V8z M21,49h-2v-2h2  V49z M27.199,54.652c-0.705-0.529-1.693-0.529-2.398,0L23,55.994V47h5.999l-0.006,8.997L27.199,54.652z M31,47h14v2H31V47z   M49,50.002C49,51.655,47.655,53,46,53H31v-2h14c1.103,0,2-0.896,2-1.998v-2C47,45.898,46.103,45,45,45H19c-1.103,0-2,0.898-2,2.002  v2C17,50.104,17.897,51,19,51h2v2h-3c-1.654,0-3-1.345-3-2.998V14.001C15,12.347,16.345,11,18,11h3h10h15c1.654,0,3,1.346,3,3.001  V50.002z"/>
<linearGradient id="SVGID_3__43593" gradientUnits="userSpaceOnUse" x1="25" y1="5.2501" x2="25" y2="58.8953" spreadMethod="reflect">
	<stop offset="0" style="stop-color:#1A6DFF"/>
	<stop offset="1" style="stop-color:#C822FF"/>
</linearGradient>
<path style="fill:url(#SVGID_3__43593);" d="M26,21h-2.031C22.332,21,21,22.332,21,23.97V31h2v-2h4v2h2v-7.03C29,22.332,27.654,21,26,21z   M23,27v-3.03c0-0.535,0.434-0.97,0.969-0.97H26c0.542,0,1,0.444,1,0.97V27H23z"/>
<linearGradient id="SVGID_4__43593" gradientUnits="userSpaceOnUse" x1="37" y1="5.2501" x2="37" y2="58.8953" spreadMethod="reflect">
	<stop offset="0" style="stop-color:#1A6DFF"/>
	<stop offset="1" style="stop-color:#C822FF"/>
</linearGradient>
<rect x="31" y="21" style="fill:url(#SVGID_4__43593);" width="12" height="2"/>
<linearGradient id="SVGID_5__43593" gradientUnits="userSpaceOnUse" x1="37" y1="5.2501" x2="37" y2="58.8953" spreadMethod="reflect">
	<stop offset="0" style="stop-color:#1A6DFF"/>
	<stop offset="1" style="stop-color:#C822FF"/>
</linearGradient>
<rect x="31" y="25" style="fill:url(#SVGID_5__43593);" width="12" height="2"/>
<linearGradient id="SVGID_6__43593" gradientUnits="userSpaceOnUse" x1="37" y1="5.2501" x2="37" y2="58.8953" spreadMethod="reflect">
	<stop offset="0" style="stop-color:#1A6DFF"/>
	<stop offset="1" style="stop-color:#C822FF"/>
</linearGradient>
<rect x="31" y="29" style="fill:url(#SVGID_6__43593);" width="12" height="2"/>
<linearGradient id="SVGID_7__43593" gradientUnits="userSpaceOnUse" x1="25" y1="5.2501" x2="25" y2="58.8953" spreadMethod="reflect">
	<stop offset="0" style="stop-color:#1A6DFF"/>
	<stop offset="1" style="stop-color:#C822FF"/>
</linearGradient>
<rect x="21" y="33" style="fill:url(#SVGID_7__43593);" width="8" height="2"/>
<linearGradient id="SVGID_8__43593" gradientUnits="userSpaceOnUse" x1="37" y1="5.2501" x2="37" y2="58.8953" spreadMethod="reflect">
	<stop offset="0" style="stop-color:#1A6DFF"/>
	<stop offset="1" style="stop-color:#C822FF"/>
</linearGradient>
<rect x="31" y="33" style="fill:url(#SVGID_8__43593);" width="12" height="2"/>
<linearGradient id="SVGID_9__43593" gradientUnits="userSpaceOnUse" x1="26" y1="7.0834" x2="26" y2="10.3345" spreadMethod="reflect">
	<stop offset="0" style="stop-color:#6DC7FF"/>
	<stop offset="1" style="stop-color:#E6ABFF"/>
</linearGradient>
<rect x="23" y="8" style="fill:url(#SVGID_9__43593);" width="6" height="1"/>
</svg>
